<svg width="1444" height="973" xmlns="http://www.w3.org/2000/svg"><g><path d="M-32.95521640205233,-105.1564939965503L-117.01851981797515,469.07269121310367L-42.71298939519768,102.88180004286707Z" fill="#d05047" stroke="#d05047"/><path d="M-32.95521640205233,-105.1564939965503L-42.71298939519768,102.88180004286707L94.59665496546718,-48.08799207005177Z" fill="#c2192c" stroke="#c2192c"/><path d="M-32.95521640205233,-105.1564939965503L94.59665496546718,-48.08799207005177L282.0332338916818,-111.78878306452663Z" fill="#c6272a" stroke="#c6272a"/><path d="M94.59665496546718,-48.08799207005177L-42.71298939519768,102.88180004286707L20.253282653046423,125.66953575817614Z" fill="#ce3b3e" stroke="#ce3b3e"/><path d="M94.59665496546718,-48.08799207005177L20.253282653046423,125.66953575817614L280.87364862698485,33.25498443919615Z" fill="#d94b46" stroke="#d94b46"/><path d="M94.59665496546718,-48.08799207005177L280.87364862698485,33.25498443919615L282.0332338916818,-111.78878306452663Z" fill="#da4140" stroke="#da4140"/><path d="M282.0332338916818,-111.78878306452663L280.87364862698485,33.25498443919615L334.72591307580376,-72.41812459369694Z" fill="#dd4f4d" stroke="#dd4f4d"/><path d="M282.0332338916818,-111.78878306452663L334.72591307580376,-72.41812459369694L495.9344806129037,-76.10860844704234Z" fill="#da5b55" stroke="#da5b55"/><path d="M282.0332338916818,-111.78878306452663L495.9344806129037,-76.10860844704234L644.3348292067777,-94.74146299497801Z" fill="#dc6d69" stroke="#dc6d69"/><path d="M282.0332338916818,-111.78878306452663L644.3348292067777,-94.74146299497801L1415.5636104324262,-122.76544754858261Z" fill="#b76b77" stroke="#b76b77"/><path d="M334.72591307580376,-72.41812459369694L280.87364862698485,33.25498443919615L319.94086565652515,42.54068713418412Z" fill="#e4635a" stroke="#e4635a"/><path d="M334.72591307580376,-72.41812459369694L319.94086565652515,42.54068713418412L495.9344806129037,-76.10860844704234Z" fill="#e16162" stroke="#e16162"/><path d="M495.9344806129037,-76.10860844704234L319.94086565652515,42.54068713418412L549.7708947358694,84.42471186450892Z" fill="#ea817b" stroke="#ea817b"/><path d="M495.9344806129037,-76.10860844704234L549.7708947358694,84.42471186450892L644.3348292067777,-94.74146299497801Z" fill="#dd757e" stroke="#dd757e"/><path d="M644.3348292067777,-94.74146299497801L549.7708947358694,84.42471186450892L669.7937758829838,41.337701085649506Z" fill="#dd868b" stroke="#dd868b"/><path d="M644.3348292067777,-94.74146299497801L669.7937758829838,41.337701085649506L846.3735687894934,-21.75060568498573Z" fill="#cf7a8d" stroke="#cf7a8d"/><path d="M644.3348292067777,-94.74146299497801L846.3735687894934,-21.75060568498573L948.218156823521,-39.660646365171104Z" fill="#b86781" stroke="#b86781"/><path d="M644.3348292067777,-94.74146299497801L948.218156823521,-39.660646365171104L1092.9999014978298,-95.80537303813128Z" fill="#a35d76" stroke="#a35d76"/><path d="M644.3348292067777,-94.74146299497801L1092.9999014978298,-95.80537303813128L1415.5636104324262,-122.76544754858261Z" fill="#834865" stroke="#834865"/><path d="M846.3735687894934,-21.75060568498573L669.7937758829838,41.337701085649506L771.3255284799928,118.51723662330707Z" fill="#d09298" stroke="#d09298"/><path d="M846.3735687894934,-21.75060568498573L771.3255284799928,118.51723662330707L927.54781754404,194.34407134086905Z" fill="#c49b9d" stroke="#c49b9d"/><path d="M846.3735687894934,-21.75060568498573L927.54781754404,194.34407134086905L1008.485133635037,38.147423596747245Z" fill="#af8792" stroke="#af8792"/><path d="M846.3735687894934,-21.75060568498573L1008.485133635037,38.147423596747245L948.218156823521,-39.660646365171104Z" fill="#a36782" stroke="#a36782"/><path d="M948.218156823521,-39.660646365171104L1008.485133635037,38.147423596747245L1092.9999014978298,-95.80537303813128Z" fill="#915277" stroke="#915277"/><path d="M1092.9999014978298,-95.80537303813128L1008.485133635037,38.147423596747245L1181.24511224334,15.799171006527043Z" fill="#894e75" stroke="#894e75"/><path d="M1092.9999014978298,-95.80537303813128L1181.24511224334,15.799171006527043L1253.313483979467,-73.23738080274754Z" fill="#783767" stroke="#783767"/><path d="M1092.9999014978298,-95.80537303813128L1253.313483979467,-73.23738080274754L1415.5636104324262,-122.76544754858261Z" fill="#662c58" stroke="#662c58"/><path d="M1253.313483979467,-73.23738080274754L1181.24511224334,15.799171006527043L1265.9974087248208,111.37247490450453Z" fill="#794871" stroke="#794871"/><path d="M1253.313483979467,-73.23738080274754L1265.9974087248208,111.37247490450453L1450.3014770562504,51.92754652644864Z" fill="#6e406d" stroke="#6e406d"/><path d="M1253.313483979467,-73.23738080274754L1450.3014770562504,51.92754652644864L1415.5636104324262,-122.76544754858261Z" fill="#641c59" stroke="#641c59"/><path d="M1415.5636104324262,-122.76544754858261L1450.3014770562504,51.92754652644864L1595.1357489894212,-82.50805411478498Z" fill="#630c51" stroke="#630c51"/><path d="M1595.1357489894212,-82.50805411478498L1450.3014770562504,51.92754652644864L1547.5573314749083,120.7322512716256Z" fill="#6e235e" stroke="#6e235e"/><path d="M1595.1357489894212,-82.50805411478498L1547.5573314749083,120.7322512716256L1554.3041538121263,273.6577342148593Z" fill="#783c6a" stroke="#783c6a"/><path d="M1595.1357489894212,-82.50805411478498L1554.3041538121263,273.6577342148593L1571.024957330728,432.9589698371733Z" fill="#805f87" stroke="#805f87"/><path d="M1595.1357489894212,-82.50805411478498L1571.024957330728,432.9589698371733L1596.8753747021349,620.5965721101044Z" fill="#8080b1" stroke="#8080b1"/><path d="M1595.1357489894212,-82.50805411478498L1596.8753747021349,620.5965721101044L1614.6293264470946,829.6264774922802Z" fill="#7d80b7" stroke="#7d80b7"/><path d="M-42.71298939519768,102.88180004286707L-117.01851981797515,469.07269121310367L-25.51401943237039,264.2605237948312Z" fill="#d17374" stroke="#d17374"/><path d="M-42.71298939519768,102.88180004286707L-25.51401943237039,264.2605237948312L20.253282653046423,125.66953575817614Z" fill="#d75b4f" stroke="#d75b4f"/><path d="M20.253282653046423,125.66953575817614L-25.51401943237039,264.2605237948312L94.15184838100144,264.8356586295429Z" fill="#dd7569" stroke="#dd7569"/><path d="M20.253282653046423,125.66953575817614L94.15184838100144,264.8356586295429L228.84975247381942,228.58491408335044Z" fill="#e7866e" stroke="#e7866e"/><path d="M20.253282653046423,125.66953575817614L228.84975247381942,228.58491408335044L280.87364862698485,33.25498443919615Z" fill="#eb7b5e" stroke="#eb7b5e"/><path d="M280.87364862698485,33.25498443919615L228.84975247381942,228.58491408335044L319.94086565652515,42.54068713418412Z" fill="#f08567" stroke="#f08567"/><path d="M319.94086565652515,42.54068713418412L228.84975247381942,228.58491408335044L353.9013041077569,283.19350610085087Z" fill="#f9a881" stroke="#f9a881"/><path d="M319.94086565652515,42.54068713418412L353.9013041077569,283.19350610085087L503.03548181166036,223.82769382488055Z" fill="#fcb794" stroke="#fcb794"/><path d="M319.94086565652515,42.54068713418412L503.03548181166036,223.82769382488055L549.7708947358694,84.42471186450892Z" fill="#f8aa90" stroke="#f8aa90"/><path d="M549.7708947358694,84.42471186450892L503.03548181166036,223.82769382488055L690.7143873930229,274.1244234032827Z" fill="#f5cbb3" stroke="#f5cbb3"/><path d="M549.7708947358694,84.42471186450892L690.7143873930229,274.1244234032827L669.7937758829838,41.337701085649506Z" fill="#ecb7a5" stroke="#ecb7a5"/><path d="M669.7937758829838,41.337701085649506L690.7143873930229,274.1244234032827L773.0307809543322,167.2795367989019Z" fill="#e9c4b1" stroke="#e9c4b1"/><path d="M669.7937758829838,41.337701085649506L773.0307809543322,167.2795367989019L771.3255284799928,118.51723662330707Z" fill="#deaea7" stroke="#deaea7"/><path d="M771.3255284799928,118.51723662330707L773.0307809543322,167.2795367989019L927.54781754404,194.34407134086905Z" fill="#d1b7ab" stroke="#d1b7ab"/><path d="M1008.485133635037,38.147423596747245L927.54781754404,194.34407134086905L1158.9465987201609,216.56944730867866Z" fill="#a8989b" stroke="#a8989b"/><path d="M1008.485133635037,38.147423596747245L1158.9465987201609,216.56944730867866L1181.24511224334,15.799171006527043Z" fill="#937589" stroke="#937589"/><path d="M1181.24511224334,15.799171006527043L1158.9465987201609,216.56944730867866L1265.9974087248208,111.37247490450453Z" fill="#8a7287" stroke="#8a7287"/><path d="M1265.9974087248208,111.37247490450453L1158.9465987201609,216.56944730867866L1271.2422311827308,169.11342490046397Z" fill="#8c8290" stroke="#8c8290"/><path d="M1265.9974087248208,111.37247490450453L1271.2422311827308,169.11342490046397L1450.3014770562504,51.92754652644864Z" fill="#795f7d" stroke="#795f7d"/><path d="M1450.3014770562504,51.92754652644864L1271.2422311827308,169.11342490046397L1452.6475908439115,217.09036135167628Z" fill="#7e6580" stroke="#7e6580"/><path d="M1450.3014770562504,51.92754652644864L1452.6475908439115,217.09036135167628L1547.5573314749083,120.7322512716256Z" fill="#7b5176" stroke="#7b5176"/><path d="M1547.5573314749083,120.7322512716256L1452.6475908439115,217.09036135167628L1554.3041538121263,273.6577342148593Z" fill="#806589" stroke="#806589"/><path d="M-25.51401943237039,264.2605237948312L-117.01851981797515,469.07269121310367L-68.16522234981228,414.78667990581033Z" fill="#cf8087" stroke="#cf8087"/><path d="M-25.51401943237039,264.2605237948312L-68.16522234981228,414.78667990581033L36.152323725498036,397.153846133239Z" fill="#d6878c" stroke="#d6878c"/><path d="M-25.51401943237039,264.2605237948312L36.152323725498036,397.153846133239L94.15184838100144,264.8356586295429Z" fill="#dd908a" stroke="#dd908a"/><path d="M94.15184838100144,264.8356586295429L36.152323725498036,397.153846133239L268.70427438918614,344.1755171284163Z" fill="#eaab9c" stroke="#eaab9c"/><path d="M94.15184838100144,264.8356586295429L268.70427438918614,344.1755171284163L228.84975247381942,228.58491408335044Z" fill="#f2ae92" stroke="#f2ae92"/><path d="M228.84975247381942,228.58491408335044L268.70427438918614,344.1755171284163L353.9013041077569,283.19350610085087Z" fill="#f9c1a2" stroke="#f9c1a2"/><path d="M353.9013041077569,283.19350610085087L268.70427438918614,344.1755171284163L392.24515915411905,339.91935476138474Z" fill="#fad5bc" stroke="#fad5bc"/><path d="M353.9013041077569,283.19350610085087L392.24515915411905,339.91935476138474L471.5793139138879,330.1844317390037Z" fill="#fcdfc8" stroke="#fcdfc8"/><path d="M353.9013041077569,283.19350610085087L471.5793139138879,330.1844317390037L503.03548181166036,223.82769382488055Z" fill="#fddac2" stroke="#fddac2"/><path d="M503.03548181166036,223.82769382488055L471.5793139138879,330.1844317390037L690.7143873930229,274.1244234032827Z" fill="#f8e1cf" stroke="#f8e1cf"/><path d="M690.7143873930229,274.1244234032827L471.5793139138879,330.1844317390037L704.1545443989891,332.5231313956813Z" fill="#f1ede2" stroke="#f1ede2"/><path d="M690.7143873930229,274.1244234032827L704.1545443989891,332.5231313956813L866.9362192287599,339.8493636474342Z" fill="#e1ece9" stroke="#e1ece9"/><path d="M690.7143873930229,274.1244234032827L866.9362192287599,339.8493636474342L773.0307809543322,167.2795367989019Z" fill="#dcd9d3" stroke="#dcd9d3"/><path d="M773.0307809543322,167.2795367989019L866.9362192287599,339.8493636474342L927.54781754404,194.34407134086905Z" fill="#cbc8c4" stroke="#cbc8c4"/><path d="M927.54781754404,194.34407134086905L866.9362192287599,339.8493636474342L967.0495143726367,392.37259951268834Z" fill="#bdd5dc" stroke="#bdd5dc"/><path d="M927.54781754404,194.34407134086905L967.0495143726367,392.37259951268834L1158.9465987201609,216.56944730867866Z" fill="#abbdc5" stroke="#abbdc5"/><path d="M1158.9465987201609,216.56944730867866L967.0495143726367,392.37259951268834L1137.0183873722658,406.127396750337Z" fill="#a1c3d6" stroke="#a1c3d6"/><path d="M1158.9465987201609,216.56944730867866L1137.0183873722658,406.127396750337L1333.2019914810587,368.91914989932934Z" fill="#8fb2cd" stroke="#8fb2cd"/><path d="M1158.9465987201609,216.56944730867866L1333.2019914810587,368.91914989932934L1271.2422311827308,169.11342490046397Z" fill="#8997ae" stroke="#8997ae"/><path d="M1271.2422311827308,169.11342490046397L1333.2019914810587,368.91914989932934L1452.6475908439115,217.09036135167628Z" fill="#808aa7" stroke="#808aa7"/><path d="M1452.6475908439115,217.09036135167628L1333.2019914810587,368.91914989932934L1414.755873465201,421.03991109800575Z" fill="#8097bf" stroke="#8097bf"/><path d="M1452.6475908439115,217.09036135167628L1414.755873465201,421.03991109800575L1554.3041538121263,273.6577342148593Z" fill="#8088b2" stroke="#8088b2"/><path d="M1554.3041538121263,273.6577342148593L1414.755873465201,421.03991109800575L1571.024957330728,432.9589698371733Z" fill="#7f88b9" stroke="#7f88b9"/><path d="M-68.16522234981228,414.78667990581033L-117.01851981797515,469.07269121310367L38.80210040386728,528.5925352510762Z" fill="#d0808f" stroke="#d0808f"/><path d="M-68.16522234981228,414.78667990581033L38.80210040386728,528.5925352510762L36.152323725498036,397.153846133239Z" fill="#d78c94" stroke="#d78c94"/><path d="M36.152323725498036,397.153846133239L38.80210040386728,528.5925352510762L228.95778538383667,534.2203629410341Z" fill="#e3a4a1" stroke="#e3a4a1"/><path d="M36.152323725498036,397.153846133239L228.95778538383667,534.2203629410341L268.70427438918614,344.1755171284163Z" fill="#edb6a6" stroke="#edb6a6"/><path d="M268.70427438918614,344.1755171284163L228.95778538383667,534.2203629410341L330.6662327576152,498.2419070836806Z" fill="#f6cbb7" stroke="#f6cbb7"/><path d="M268.70427438918614,344.1755171284163L330.6662327576152,498.2419070836806L392.24515915411905,339.91935476138474Z" fill="#f8d4bf" stroke="#f8d4bf"/><path d="M392.24515915411905,339.91935476138474L330.6662327576152,498.2419070836806L468.0029716294741,475.27361983929393Z" fill="#fadfcf" stroke="#fadfcf"/><path d="M392.24515915411905,339.91935476138474L468.0029716294741,475.27361983929393L471.5793139138879,330.1844317390037Z" fill="#fce7d5" stroke="#fce7d5"/><path d="M471.5793139138879,330.1844317390037L468.0029716294741,475.27361983929393L704.1545443989891,332.5231313956813Z" fill="#f7efe3" stroke="#f7efe3"/><path d="M704.1545443989891,332.5231313956813L468.0029716294741,475.27361983929393L729.5323471064768,521.7109777701164Z" fill="#eef0ee" stroke="#eef0ee"/><path d="M704.1545443989891,332.5231313956813L729.5323471064768,521.7109777701164L831.5266718486562,513.9085263870178Z" fill="#deeef4" stroke="#deeef4"/><path d="M704.1545443989891,332.5231313956813L831.5266718486562,513.9085263870178L866.9362192287599,339.8493636474342Z" fill="#d5e8ed" stroke="#d5e8ed"/><path d="M866.9362192287599,339.8493636474342L831.5266718486562,513.9085263870178L937.5895056209282,509.6096820103602Z" fill="#c3dfeb" stroke="#c3dfeb"/><path d="M866.9362192287599,339.8493636474342L937.5895056209282,509.6096820103602L967.0495143726367,392.37259951268834Z" fill="#bad9e6" stroke="#bad9e6"/><path d="M967.0495143726367,392.37259951268834L937.5895056209282,509.6096820103602L1137.0183873722658,406.127396750337Z" fill="#aacde1" stroke="#aacde1"/><path d="M1137.0183873722658,406.127396750337L937.5895056209282,509.6096820103602L1175.0606285425242,498.84816406457213Z" fill="#9fc3dd" stroke="#9fc3dd"/><path d="M1137.0183873722658,406.127396750337L1175.0606285425242,498.84816406457213L1333.2019914810587,368.91914989932934Z" fill="#8db1d1" stroke="#8db1d1"/><path d="M1333.2019914810587,368.91914989932934L1175.0606285425242,498.84816406457213L1289.6043015803361,579.5491755621254Z" fill="#84aad1" stroke="#84aad1"/><path d="M1333.2019914810587,368.91914989932934L1289.6043015803361,579.5491755621254L1420.8922555475351,516.8278441669478Z" fill="#7c9ecb" stroke="#7c9ecb"/><path d="M1333.2019914810587,368.91914989932934L1420.8922555475351,516.8278441669478L1414.755873465201,421.03991109800575Z" fill="#7e99c5" stroke="#7e99c5"/><path d="M1414.755873465201,421.03991109800575L1420.8922555475351,516.8278441669478L1571.024957330728,432.9589698371733Z" fill="#7d8ec1" stroke="#7d8ec1"/><path d="M1571.024957330728,432.9589698371733L1420.8922555475351,516.8278441669478L1547.6869747731314,540.3508747756313Z" fill="#7986bf" stroke="#7986bf"/><path d="M1571.024957330728,432.9589698371733L1547.6869747731314,540.3508747756313L1596.8753747021349,620.5965721101044Z" fill="#6b78ba" stroke="#6b78ba"/><path d="M-117.01851981797515,469.07269121310367L-89.65962928233515,1165.5481262947578L-74.57637054845901,852.2310391439328Z" fill="#5c386f" stroke="#5c386f"/><path d="M-117.01851981797515,469.07269121310367L-74.57637054845901,852.2310391439328L-52.3172665353476,687.3059926415153Z" fill="#876085" stroke="#876085"/><path d="M-117.01851981797515,469.07269121310367L-52.3172665353476,687.3059926415153L38.80210040386728,528.5925352510762Z" fill="#b3758e" stroke="#b3758e"/><path d="M38.80210040386728,528.5925352510762L-52.3172665353476,687.3059926415153L68.31976496259438,645.098249063544Z" fill="#a47a94" stroke="#a47a94"/><path d="M38.80210040386728,528.5925352510762L68.31976496259438,645.098249063544L228.95778538383667,534.2203629410341Z" fill="#c498a0" stroke="#c498a0"/><path d="M228.95778538383667,534.2203629410341L68.31976496259438,645.098249063544L215.97464568068622,732.8238086113523Z" fill="#b19ba5" stroke="#b19ba5"/><path d="M228.95778538383667,534.2203629410341L215.97464568068622,732.8238086113523L383.34547945919223,718.1961324104241Z" fill="#b3adb3" stroke="#b3adb3"/><path d="M228.95778538383667,534.2203629410341L383.34547945919223,718.1961324104241L330.6662327576152,498.2419070836806Z" fill="#d1c1be" stroke="#d1c1be"/><path d="M330.6662327576152,498.2419070836806L383.34547945919223,718.1961324104241L468.0029716294741,475.27361983929393Z" fill="#dbd2cf" stroke="#dbd2cf"/><path d="M468.0029716294741,475.27361983929393L383.34547945919223,718.1961324104241L553.767636137087,710.6277039238072Z" fill="#c1d3dd" stroke="#c1d3dd"/><path d="M468.0029716294741,475.27361983929393L553.767636137087,710.6277039238072L646.2627472250258,664.6883061986806Z" fill="#c2d9e7" stroke="#c2d9e7"/><path d="M468.0029716294741,475.27361983929393L646.2627472250258,664.6883061986806L729.5323471064768,521.7109777701164Z" fill="#d5e5ed" stroke="#d5e5ed"/><path d="M729.5323471064768,521.7109777701164L646.2627472250258,664.6883061986806L880.3639870653692,693.6294730081172Z" fill="#a8d7f2" stroke="#a8d7f2"/><path d="M729.5323471064768,521.7109777701164L880.3639870653692,693.6294730081172L831.5266718486562,513.9085263870178Z" fill="#aed8ef" stroke="#aed8ef"/><path d="M831.5266718486562,513.9085263870178L880.3639870653692,693.6294730081172L937.5895056209282,509.6096820103602Z" fill="#a0d0eb" stroke="#a0d0eb"/><path d="M937.5895056209282,509.6096820103602L880.3639870653692,693.6294730081172L963.5727880075007,701.9200020025728Z" fill="#7fc0e6" stroke="#7fc0e6"/><path d="M937.5895056209282,509.6096820103602L963.5727880075007,701.9200020025728L1179.4594481213483,659.9900740441329Z" fill="#71b4df" stroke="#71b4df"/><path d="M937.5895056209282,509.6096820103602L1179.4594481213483,659.9900740441329L1175.0606285425242,498.84816406457213Z" fill="#82b6dc" stroke="#82b6dc"/><path d="M1175.0606285425242,498.84816406457213L1179.4594481213483,659.9900740441329L1289.6043015803361,579.5491755621254Z" fill="#68a2d2" stroke="#68a2d2"/><path d="M1289.6043015803361,579.5491755621254L1179.4594481213483,659.9900740441329L1238.0710393771042,674.2179637565699Z" fill="#4e95d0" stroke="#4e95d0"/><path d="M1289.6043015803361,579.5491755621254L1238.0710393771042,674.2179637565699L1423.978129899019,690.5738650637161Z" fill="#3e88c9" stroke="#3e88c9"/><path d="M1289.6043015803361,579.5491755621254L1423.978129899019,690.5738650637161L1420.8922555475351,516.8278441669478Z" fill="#5288c7" stroke="#5288c7"/><path d="M1420.8922555475351,516.8278441669478L1423.978129899019,690.5738650637161L1547.6869747731314,540.3508747756313Z" fill="#577ec0" stroke="#577ec0"/><path d="M1547.6869747731314,540.3508747756313L1423.978129899019,690.5738650637161L1596.8753747021349,620.5965721101044Z" fill="#4a70bc" stroke="#4a70bc"/><path d="M-52.3172665353476,687.3059926415153L-74.57637054845901,852.2310391439328L121.63111309113171,873.5845523634395Z" fill="#6e4a7d" stroke="#6e4a7d"/><path d="M-52.3172665353476,687.3059926415153L121.63111309113171,873.5845523634395L169.54208717509985,792.326986146039Z" fill="#7e6289" stroke="#7e6289"/><path d="M-52.3172665353476,687.3059926415153L169.54208717509985,792.326986146039L68.31976496259438,645.098249063544Z" fill="#8f7191" stroke="#8f7191"/><path d="M68.31976496259438,645.098249063544L169.54208717509985,792.326986146039L215.97464568068622,732.8238086113523Z" fill="#968299" stroke="#968299"/><path d="M215.97464568068622,732.8238086113523L169.54208717509985,792.326986146039L361.7314072390597,864.1026643079042Z" fill="#8f879c" stroke="#8f879c"/><path d="M215.97464568068622,732.8238086113523L361.7314072390597,864.1026643079042L383.34547945919223,718.1961324104241Z" fill="#9899ad" stroke="#9899ad"/><path d="M383.34547945919223,718.1961324104241L361.7314072390597,864.1026643079042L467.8662452630623,876.1481831755494Z" fill="#8e9bb9" stroke="#8e9bb9"/><path d="M383.34547945919223,718.1961324104241L467.8662452630623,876.1481831755494L553.767636137087,710.6277039238072Z" fill="#9db3cd" stroke="#9db3cd"/><path d="M553.767636137087,710.6277039238072L467.8662452630623,876.1481831755494L633.5401311722593,802.9087364499397Z" fill="#8fafd2" stroke="#8fafd2"/><path d="M553.767636137087,710.6277039238072L633.5401311722593,802.9087364499397L646.2627472250258,664.6883061986806Z" fill="#9cc2e0" stroke="#9cc2e0"/><path d="M646.2627472250258,664.6883061986806L633.5401311722593,802.9087364499397L880.3639870653692,693.6294730081172Z" fill="#94c6ea" stroke="#94c6ea"/><path d="M880.3639870653692,693.6294730081172L633.5401311722593,802.9087364499397L801.2330239472201,873.7752216970554Z" fill="#77aede" stroke="#77aede"/><path d="M880.3639870653692,693.6294730081172L801.2330239472201,873.7752216970554L989.5026890735471,873.4623422532209Z" fill="#579ad3" stroke="#579ad3"/><path d="M880.3639870653692,693.6294730081172L989.5026890735471,873.4623422532209L963.5727880075007,701.9200020025728Z" fill="#59a1d6" stroke="#59a1d6"/><path d="M963.5727880075007,701.9200020025728L989.5026890735471,873.4623422532209L1176.6406207235195,766.7244674815555Z" fill="#448ecc" stroke="#448ecc"/><path d="M963.5727880075007,701.9200020025728L1176.6406207235195,766.7244674815555L1179.4594481213483,659.9900740441329Z" fill="#4c96d1" stroke="#4c96d1"/><path d="M1179.4594481213483,659.9900740441329L1176.6406207235195,766.7244674815555L1238.0710393771042,674.2179637565699Z" fill="#428ccc" stroke="#428ccc"/><path d="M1238.0710393771042,674.2179637565699L1176.6406207235195,766.7244674815555L1220.6787704888636,844.1473436442125Z" fill="#307bc3" stroke="#307bc3"/><path d="M1238.0710393771042,674.2179637565699L1220.6787704888636,844.1473436442125L1422.834501626399,777.1208277180384Z" fill="#236fbc" stroke="#236fbc"/><path d="M1238.0710393771042,674.2179637565699L1422.834501626399,777.1208277180384L1423.978129899019,690.5738650637161Z" fill="#2d72be" stroke="#2d72be"/><path d="M1423.978129899019,690.5738650637161L1422.834501626399,777.1208277180384L1614.6293264470946,829.6264774922802Z" fill="#1f53ae" stroke="#1f53ae"/><path d="M1423.978129899019,690.5738650637161L1614.6293264470946,829.6264774922802L1596.8753747021349,620.5965721101044Z" fill="#2d58b0" stroke="#2d58b0"/><path d="M-74.57637054845901,852.2310391439328L-89.65962928233515,1165.5481262947578L-27.214860868057755,1013.3749620488893Z" fill="#510c5b" stroke="#510c5b"/><path d="M-74.57637054845901,852.2310391439328L-27.214860868057755,1013.3749620488893L107.73866492599919,931.6881001212374Z" fill="#5a2b6d" stroke="#5a2b6d"/><path d="M-74.57637054845901,852.2310391439328L107.73866492599919,931.6881001212374L121.63111309113171,873.5845523634395Z" fill="#604279" stroke="#604279"/><path d="M121.63111309113171,873.5845523634395L107.73866492599919,931.6881001212374L222.74377425713152,986.2993374910484Z" fill="#6c4f7e" stroke="#6c4f7e"/><path d="M121.63111309113171,873.5845523634395L222.74377425713152,986.2993374910484L169.54208717509985,792.326986146039Z" fill="#6f5f86" stroke="#6f5f86"/><path d="M169.54208717509985,792.326986146039L222.74377425713152,986.2993374910484L361.7314072390597,864.1026643079042Z" fill="#7a7291" stroke="#7a7291"/><path d="M361.7314072390597,864.1026643079042L222.74377425713152,986.2993374910484L346.9508581426457,959.2811152535918Z" fill="#7a6e96" stroke="#7a6e96"/><path d="M361.7314072390597,864.1026643079042L346.9508581426457,959.2811152535918L467.8662452630623,876.1481831755494Z" fill="#7c85ac" stroke="#7c85ac"/><path d="M467.8662452630623,876.1481831755494L346.9508581426457,959.2811152535918L557.8359410163847,988.3083137485166Z" fill="#7e86b4" stroke="#7e86b4"/><path d="M467.8662452630623,876.1481831755494L557.8359410163847,988.3083137485166L633.5401311722593,802.9087364499397Z" fill="#7898c6" stroke="#7898c6"/><path d="M633.5401311722593,802.9087364499397L557.8359410163847,988.3083137485166L730.5481637189047,955.5200761742981Z" fill="#7094ca" stroke="#7094ca"/><path d="M633.5401311722593,802.9087364499397L730.5481637189047,955.5200761742981L801.2330239472201,873.7752216970554Z" fill="#6b9fd6" stroke="#6b9fd6"/><path d="M801.2330239472201,873.7752216970554L730.5481637189047,955.5200761742981L813.1758501223765,955.8085400283585Z" fill="#5c8bcc" stroke="#5c8bcc"/><path d="M801.2330239472201,873.7752216970554L813.1758501223765,955.8085400283585L989.5026890735471,873.4623422532209Z" fill="#4987c9" stroke="#4987c9"/><path d="M989.5026890735471,873.4623422532209L813.1758501223765,955.8085400283585L1010.9975954046475,976.2784071663773Z" fill="#3976c0" stroke="#3976c0"/><path d="M989.5026890735471,873.4623422532209L1010.9975954046475,976.2784071663773L1117.2583021765774,931.096715928594Z" fill="#296aba" stroke="#296aba"/><path d="M989.5026890735471,873.4623422532209L1117.2583021765774,931.096715928594L1176.6406207235195,766.7244674815555Z" fill="#2873bf" stroke="#2873bf"/><path d="M1176.6406207235195,766.7244674815555L1117.2583021765774,931.096715928594L1220.6787704888636,844.1473436442125Z" fill="#1f6bbb" stroke="#1f6bbb"/><path d="M1220.6787704888636,844.1473436442125L1117.2583021765774,931.096715928594L1235.0401868012589,1010.573546585634Z" fill="#1354ae" stroke="#1354ae"/><path d="M1220.6787704888636,844.1473436442125L1235.0401868012589,1010.573546585634L1420.9080825425353,1025.0428717313093Z" fill="#043ea3" stroke="#043ea3"/><path d="M1220.6787704888636,844.1473436442125L1420.9080825425353,1025.0428717313093L1422.834501626399,777.1208277180384Z" fill="#0149a9" stroke="#0149a9"/><path d="M1422.834501626399,777.1208277180384L1420.9080825425353,1025.0428717313093L1587.0959395770456,1007.2838621963302Z" fill="#002b98" stroke="#002b98"/><path d="M1422.834501626399,777.1208277180384L1587.0959395770456,1007.2838621963302L1614.6293264470946,829.6264774922802Z" fill="#04329c" stroke="#04329c"/><path d="M-27.214860868057755,1013.3749620488893L-89.65962928233515,1165.5481262947578L91.70592885155608,1145.82304055782Z" fill="#580a55" stroke="#580a55"/><path d="M-27.214860868057755,1013.3749620488893L91.70592885155608,1145.82304055782L107.73866492599919,931.6881001212374Z" fill="#612066" stroke="#612066"/><path d="M107.73866492599919,931.6881001212374L91.70592885155608,1145.82304055782L222.74377425713152,986.2993374910484Z" fill="#6b3671" stroke="#6b3671"/><path d="M222.74377425713152,986.2993374910484L91.70592885155608,1145.82304055782L256.9090273584299,1069.2269004664386Z" fill="#713971" stroke="#713971"/><path d="M222.74377425713152,986.2993374910484L256.9090273584299,1069.2269004664386L346.9508581426457,959.2811152535918Z" fill="#795886" stroke="#795886"/><path d="M346.9508581426457,959.2811152535918L256.9090273584299,1069.2269004664386L359.13139002703514,1090.2336264107475Z" fill="#7a578b" stroke="#7a578b"/><path d="M346.9508581426457,959.2811152535918L359.13139002703514,1090.2336264107475L468.89310092435665,1104.9744750937723Z" fill="#7c6098" stroke="#7c6098"/><path d="M346.9508581426457,959.2811152535918L468.89310092435665,1104.9744750937723L557.8359410163847,988.3083137485166Z" fill="#7e73aa" stroke="#7e73aa"/><path d="M557.8359410163847,988.3083137485166L468.89310092435665,1104.9744750937723L705.3781444984652,1106.7473260160768Z" fill="#7670b1" stroke="#7670b1"/><path d="M557.8359410163847,988.3083137485166L705.3781444984652,1106.7473260160768L730.5481637189047,955.5200761742981Z" fill="#6e7bbf" stroke="#6e7bbf"/><path d="M730.5481637189047,955.5200761742981L705.3781444984652,1106.7473260160768L813.1758501223765,955.8085400283585Z" fill="#637cc3" stroke="#637cc3"/><path d="M813.1758501223765,955.8085400283585L705.3781444984652,1106.7473260160768L822.1953604676434,1158.0416961546762Z" fill="#5c6bb9" stroke="#5c6bb9"/><path d="M813.1758501223765,955.8085400283585L822.1953604676434,1158.0416961546762L923.8130537170853,1134.195602767911Z" fill="#4c62b3" stroke="#4c62b3"/><path d="M813.1758501223765,955.8085400283585L923.8130537170853,1134.195602767911L1010.9975954046475,976.2784071663773Z" fill="#3e63b6" stroke="#3e63b6"/><path d="M1010.9975954046475,976.2784071663773L923.8130537170853,1134.195602767911L1077.100052398621,1111.9496275214854Z" fill="#2e4fa9" stroke="#2e4fa9"/><path d="M1010.9975954046475,976.2784071663773L1077.100052398621,1111.9496275214854L1117.2583021765774,931.096715928594Z" fill="#2453ad" stroke="#2453ad"/><path d="M1117.2583021765774,931.096715928594L1077.100052398621,1111.9496275214854L1235.0401868012589,1010.573546585634Z" fill="#1a45a6" stroke="#1a45a6"/><path d="M1235.0401868012589,1010.573546585634L1077.100052398621,1111.9496275214854L1290.1877708388888,1074.740078903171Z" fill="#11349c" stroke="#11349c"/><path d="M1235.0401868012589,1010.573546585634L1290.1877708388888,1074.740078903171L1420.9080825425353,1025.0428717313093Z" fill="#002997" stroke="#002997"/><path d="M1420.9080825425353,1025.0428717313093L1290.1877708388888,1074.740078903171L1417.2605312134258,1123.0378144671472Z" fill="#001b8e" stroke="#001b8e"/><path d="M1420.9080825425353,1025.0428717313093L1417.2605312134258,1123.0378144671472L1566.2833233954982,1099.2281134961313Z" fill="#000e86" stroke="#000e86"/><path d="M1420.9080825425353,1025.0428717313093L1566.2833233954982,1099.2281134961313L1587.0959395770456,1007.2838621963302Z" fill="#000a87" stroke="#000a87"/><path d="M-89.65962928233515,1165.5481262947578L822.1953604676434,1158.0416961546762L91.70592885155608,1145.82304055782Z" fill="#794b72" stroke="#794b72"/><path d="M91.70592885155608,1145.82304055782L822.1953604676434,1158.0416961546762L468.89310092435665,1104.9744750937723Z" fill="#7e6a9c" stroke="#7e6a9c"/><path d="M91.70592885155608,1145.82304055782L468.89310092435665,1104.9744750937723L359.13139002703514,1090.2336264107475Z" fill="#7a507f" stroke="#7a507f"/><path d="M91.70592885155608,1145.82304055782L359.13139002703514,1090.2336264107475L256.9090273584299,1069.2269004664386Z" fill="#774472" stroke="#774472"/><path d="M468.89310092435665,1104.9744750937723L822.1953604676434,1158.0416961546762L705.3781444984652,1106.7473260160768Z" fill="#6e72b1" stroke="#6e72b1"/><path d="M822.1953604676434,1158.0416961546762L1417.2605312134258,1123.0378144671472L923.8130537170853,1134.195602767911Z" fill="#26489d" stroke="#26489d"/><path d="M923.8130537170853,1134.195602767911L1417.2605312134258,1123.0378144671472L1077.100052398621,1111.9496275214854Z" fill="#1a3c99" stroke="#1a3c99"/><path d="M1077.100052398621,1111.9496275214854L1417.2605312134258,1123.0378144671472L1290.1877708388888,1074.740078903171Z" fill="#082b93" stroke="#082b93"/></g></svg>